<svg width="64" height="64" viewBox="0 0 64 64" fill="none" xmlns="http://www.w3.org/2000/svg">
<g clip-path="url(#clip0_2012_1193)">
<g clip-path="url(#clip1_2012_1193)">
<mask id="mask0_2012_1193" style="mask-type:luminance" maskUnits="userSpaceOnUse" x="0" y="0" width="64" height="64">
<path d="M64 64L64 0L3.8147e-06 -2.79753e-06L1.01717e-06 64L64 64Z" fill="white"/>
</mask>
<g mask="url(#mask0_2012_1193)">
<path d="M64 64L64 0L3.8147e-06 -2.79753e-06L1.01717e-06 64L64 64Z" fill="#B7221D"/>
<path d="M64 3.56072e-06L64 18.6667C64 21.6121 61.6122 24 58.6667 24L5.33333 24C2.38787 24 2.87e-06 21.6121 2.99875e-06 18.6667L3.8147e-06 -2.79753e-06L64 3.56072e-06Z" fill="#F7423D"/>
<path d="M2.76562e-06 64L3.58157e-06 45.3333C3.71032e-06 42.3879 2.38787 40 5.33334 40L58.6667 40C61.6122 40 64 42.3879 64 45.3333L64 64L2.76562e-06 64Z" fill="#F7423D"/>
<g filter="url(#filter0_d_2012_1193)">
<path d="M44 26.5391C43.9998 28.0681 42.7605 29.3074 41.2314 29.3076C39.7022 29.3076 38.4621 28.0683 38.4619 26.5391L38.4619 21C38.4619 19.2862 37.7802 17.6435 36.5684 16.4316C35.3565 15.2198 33.7138 14.5381 32 14.5381C30.2862 14.5381 28.6435 15.2198 27.4316 16.4316L27.2119 16.6602C26.7146 17.209 26.3144 17.8405 26.0303 18.5264C25.7055 19.3102 25.5381 20.1515 25.5381 21L25.5381 26.5391C25.5379 28.0681 24.2986 29.3074 22.7695 29.3076C21.2403 29.3076 20.0002 28.0683 20 26.5391L20 21C20 19.4241 20.3111 17.8641 20.9141 16.4082C21.4417 15.1343 22.1846 13.962 23.1084 12.9424L23.5137 12.5137C25.7642 10.2632 28.8174 9.00001 32 9C35.1826 9 38.2358 10.2632 40.4863 12.5137C42.7368 14.7642 44 17.8174 44 21L44 26.5391ZM43.9863 43.7441C43.9187 45.1185 43.6135 46.4722 43.0859 47.7461C42.4828 49.202 41.6007 50.5263 40.4863 51.6406C39.372 52.755 38.0477 53.6371 36.5918 54.2402C35.1359 54.8432 33.5758 55.1543 32 55.1543C30.4241 55.1543 28.8641 54.8432 27.4082 54.2402C25.9523 53.6371 24.628 52.755 23.5137 51.6406C22.3993 50.5263 21.5172 49.202 20.9141 47.7461C20.3865 46.4722 20.0822 45.1184 20.0146 43.7441L20 43.1543L20 37.6162C20 36.0868 21.2402 34.8467 22.7695 34.8467C24.2987 34.8469 25.5381 36.087 25.5381 37.6162L25.5381 43.1543L25.5459 43.4717C25.5823 44.2118 25.7462 44.9419 26.0303 45.6279C26.355 46.4116 26.8318 47.1228 27.4316 47.7227C28.0314 48.3225 28.7427 48.7993 29.5264 49.124C30.3102 49.4488 31.1515 49.6162 32 49.6162C32.8485 49.6162 33.6898 49.4488 34.4736 49.124C35.2573 48.7993 35.9685 48.3225 36.5684 47.7227C37.1682 47.1228 37.645 46.4116 37.9697 45.6279C38.2538 44.9419 38.4177 44.2118 38.4541 43.4717L38.4619 43.1543L38.4619 37.6162C38.4619 36.0868 39.7021 34.8467 41.2314 34.8467C42.7606 34.8469 44 36.087 44 37.6162L44 43.1543L43.9863 43.7441ZM35.6924 39.4619C35.6924 41.5012 34.0392 43.1542 32 43.1543C29.9607 43.1543 28.3076 41.5012 28.3076 39.4619L28.3076 24.6924C28.3077 22.6532 29.9608 21 32 21C34.0392 21.0001 35.6923 22.6532 35.6924 24.6924L35.6924 39.4619Z" fill="white"/>
</g>
</g>
</g>
</g>
<defs>
<filter id="filter0_d_2012_1193" x="19" y="9" width="26" height="48.1543" filterUnits="userSpaceOnUse" color-interpolation-filters="sRGB">
<feFlood flood-opacity="0" result="BackgroundImageFix"/>
<feColorMatrix in="SourceAlpha" type="matrix" values="0 0 0 0 0 0 0 0 0 0 0 0 0 0 0 0 0 0 127 0" result="hardAlpha"/>
<feOffset dy="1"/>
<feGaussianBlur stdDeviation="0.5"/>
<feComposite in2="hardAlpha" operator="out"/>
<feColorMatrix type="matrix" values="0 0 0 0 0.0666667 0 0 0 0 0.0666667 0 0 0 0 0.0666667 0 0 0 0.0666667 0"/>
<feBlend mode="normal" in2="BackgroundImageFix" result="effect1_dropShadow_2012_1193"/>
<feBlend mode="normal" in="SourceGraphic" in2="effect1_dropShadow_2012_1193" result="shape"/>
</filter>
<clipPath id="clip0_2012_1193">
<rect width="64" height="64" fill="white"/>
</clipPath>
<clipPath id="clip1_2012_1193">
<rect x="64" width="64" height="64" rx="8" transform="rotate(90 64 0)" fill="white"/>
</clipPath>
</defs>
</svg>
