<svg width="13" height="13" viewBox="0 0 13 13" fill="none" xmlns="http://www.w3.org/2000/svg">
<g clip-path="url(#clip0_2088_671)">
<path d="M11.7412 2.27661V5.27661H8.74121" stroke="#999999" stroke-width="2" stroke-linecap="round" stroke-linejoin="round"/>
<path d="M10.4862 7.77662C10.1611 8.69658 9.54593 9.48598 8.73323 10.0259C7.92053 10.5658 6.95438 10.8269 5.98036 10.7699C5.00634 10.7129 4.07723 10.3409 3.33303 9.70995C2.58883 9.07898 2.06986 8.22323 1.85433 7.27165C1.6388 6.32006 1.73839 5.32421 2.13808 4.43415C2.53777 3.54409 3.21592 2.80805 4.07033 2.33694C4.92474 1.86583 5.90912 1.68517 6.87513 1.82219C7.84115 1.95921 8.73646 2.40649 9.42615 3.09662L11.7412 5.27662" stroke="#999999" stroke-width="2" stroke-linecap="round" stroke-linejoin="round"/>
</g>
<defs>
<clipPath id="clip0_2088_671">
<rect width="12" height="12" fill="white" transform="translate(0.241211 0.276611)"/>
</clipPath>
</defs>
</svg>
