<svg width="49" height="48" viewBox="0 0 49 48" fill="none" xmlns="http://www.w3.org/2000/svg">
<path d="M14.5 22L22.5 4C24.0913 4 25.6174 4.63214 26.7426 5.75736C27.8679 6.88258 28.5 8.4087 28.5 10V18H39.82C40.3998 17.9934 40.9741 18.113 41.5031 18.3504C42.0322 18.5879 42.5032 18.9375 42.8837 19.375C43.2642 19.8126 43.545 20.3276 43.7067 20.8845C43.8683 21.4414 43.907 22.0267 43.82 22.6L41.06 40.6C40.9154 41.5538 40.4309 42.4232 39.6958 43.048C38.9608 43.6728 38.0247 44.0109 37.06 44H14.5M14.5 22V44M14.5 22H8.5C7.43913 22 6.42172 22.4214 5.67157 23.1716C4.92143 23.9217 4.5 24.9391 4.5 26V40C4.5 41.0609 4.92143 42.0783 5.67157 42.8284C6.42172 43.5786 7.43913 44 8.5 44H14.5" stroke="#3072DE" stroke-width="6" stroke-linecap="round" stroke-linejoin="round"/>
</svg>
