<svg width="51" height="49" viewBox="0 0 51 49" fill="none" xmlns="http://www.w3.org/2000/svg">
<path d="M33.5 32.5L25.5 24.5L17.5 32.5" stroke="#3072DE" stroke-width="6" stroke-linecap="round" stroke-linejoin="round"/>
<path d="M25.5 24.5V42.5" stroke="#3072DE" stroke-width="6" stroke-linecap="round" stroke-linejoin="round"/>
<path d="M42.2799 37.28C44.2306 36.2165 45.7716 34.5337 46.6597 32.4972C47.5477 30.4607 47.7323 28.1864 47.1843 26.0333C46.6363 23.8803 45.3869 21.971 43.6333 20.6069C41.8796 19.2427 39.7216 18.5014 37.4999 18.5H34.9799C34.3746 16.1585 33.2462 13.9846 31.6798 12.142C30.1134 10.2993 28.1496 8.83567 25.9361 7.86118C23.7226 6.8867 21.317 6.42669 18.9002 6.51573C16.4833 6.60478 14.1181 7.24057 11.9823 8.3753C9.84649 9.51003 7.99574 11.1142 6.56916 13.0671C5.14259 15.0201 4.1773 17.271 3.74588 19.6508C3.31446 22.0305 3.42813 24.477 4.07835 26.8065C4.72856 29.1359 5.8984 31.2877 7.49992 33.1" stroke="#3072DE" stroke-width="6" stroke-linecap="round" stroke-linejoin="round"/>
<path d="M33.5 32.5L25.5 24.5L17.5 32.5" stroke="#3072DE" stroke-width="6" stroke-linecap="round" stroke-linejoin="round"/>
</svg>
