<svg width="258" height="258" viewBox="0 0 258 258" fill="none" xmlns="http://www.w3.org/2000/svg">
<rect width="256" height="256" transform="translate(1 1)" fill="#EAEFF7"/>
<rect x="1" y="1" width="256" height="256" fill="#F2F7FF"/>
<path d="M17 1H16.5V257H17H17.5V1H17ZM1 257H1.5V1H1H0.5V257H1Z" fill="#EAEFF7"/>
<path d="M33 1H32.5V257H33H33.5V1H33ZM17 257H17.5V1H17H16.5V257H17Z" fill="#EAEFF7"/>
<path d="M49 1H48.5V257H49H49.5V1H49ZM33 257H33.5V1H33H32.5V257H33Z" fill="#EAEFF7"/>
<path d="M65 1H64.5V257H65H65.5V1H65ZM49 257H49.5V1H49H48.5V257H49Z" fill="#EAEFF7"/>
<path d="M81 1H80.5V257H81H81.5V1H81ZM65 257H65.5V1H65H64.5V257H65Z" fill="#EAEFF7"/>
<path d="M97 1H96.5V257H97H97.5V1H97ZM81 257H81.5V1H81H80.5V257H81Z" fill="#EAEFF7"/>
<path d="M113 1H112.5V257H113H113.5V1H113ZM97 257H97.5V1H97H96.5V257H97Z" fill="#EAEFF7"/>
<path d="M129 1H128.5V257H129H129.5V1H129ZM113 257H113.5V1H113H112.5V257H113Z" fill="#EAEFF7"/>
<path d="M145 1H144.5V257H145H145.5V1H145ZM129 257H129.5V1H129H128.5V257H129Z" fill="#EAEFF7"/>
<path d="M161 1H160.5V257H161H161.5V1H161ZM145 257H145.5V1H145H144.5V257H145Z" fill="#EAEFF7"/>
<path d="M177 1H176.5V257H177H177.5V1H177ZM161 257H161.5V1H161H160.5V257H161Z" fill="#EAEFF7"/>
<path d="M193 1H192.5V257H193H193.5V1H193ZM177 257H177.5V1H177H176.5V257H177Z" fill="#EAEFF7"/>
<path d="M209 1H208.5V257H209H209.5V1H209ZM193 257H193.5V1H193H192.5V257H193Z" fill="#EAEFF7"/>
<path d="M225 1H224.5V257H225H225.5V1H225ZM209 257H209.5V1H209H208.5V257H209Z" fill="#EAEFF7"/>
<path d="M241 1H240.5V257H241H241.5V1H241ZM225 257H225.5V1H225H224.5V257H225Z" fill="#EAEFF7"/>
<path d="M257 1H256.5V257H257H257.5V1H257ZM241 257H241.5V1H241H240.5V257H241Z" fill="#EAEFF7"/>
<path d="M257 17L257 16.5L0.999999 16.5L0.999999 17L0.999999 17.5L257 17.5L257 17ZM1 0.999989L1 1.49999L257 1.5L257 1L257 0.5L1 0.499989L1 0.999989Z" fill="#EAEFF7"/>
<path d="M257 33L257 32.5L0.999999 32.5L0.999999 33L0.999999 33.5L257 33.5L257 33ZM1 17L1 17.5L257 17.5L257 17L257 16.5L1 16.5L1 17Z" fill="#EAEFF7"/>
<path d="M257 49L257 48.5L0.999999 48.5L0.999999 49L0.999999 49.5L257 49.5L257 49ZM1 33L1 33.5L257 33.5L257 33L257 32.5L1 32.5L1 33Z" fill="#EAEFF7"/>
<path d="M257 65L257 64.5L0.999999 64.5L0.999999 65L0.999999 65.5L257 65.5L257 65ZM1 49L1 49.5L257 49.5L257 49L257 48.5L1 48.5L1 49Z" fill="#EAEFF7"/>
<path d="M257 81L257 80.5L0.999999 80.5L0.999999 81L0.999999 81.5L257 81.5L257 81ZM1 65L1 65.5L257 65.5L257 65L257 64.5L1 64.5L1 65Z" fill="#EAEFF7"/>
<path d="M257 97L257 96.5L0.999999 96.5L0.999999 97L0.999999 97.5L257 97.5L257 97ZM1 81L1 81.5L257 81.5L257 81L257 80.5L1 80.5L1 81Z" fill="#EAEFF7"/>
<path d="M257 113L257 112.5L0.999999 112.5L0.999999 113L0.999999 113.5L257 113.5L257 113ZM1 97L1 97.5L257 97.5L257 97L257 96.5L1 96.5L1 97Z" fill="#EAEFF7"/>
<path d="M257 129L257 128.5L0.999999 128.5L0.999999 129L0.999999 129.5L257 129.5L257 129ZM1 113L1 113.5L257 113.5L257 113L257 112.5L1 112.5L1 113Z" fill="#EAEFF7"/>
<path d="M257 145L257 144.5L0.999999 144.5L0.999999 145L0.999999 145.5L257 145.5L257 145ZM1 129L1 129.5L257 129.5L257 129L257 128.5L1 128.5L1 129Z" fill="#EAEFF7"/>
<path d="M257 161L257 160.5L0.999999 160.5L0.999999 161L0.999999 161.5L257 161.5L257 161ZM1 145L1 145.5L257 145.5L257 145L257 144.5L1 144.5L1 145Z" fill="#EAEFF7"/>
<path d="M257 177L257 176.5L0.999999 176.5L0.999999 177L0.999999 177.5L257 177.5L257 177ZM1 161L1 161.5L257 161.5L257 161L257 160.5L1 160.5L1 161Z" fill="#EAEFF7"/>
<path d="M257 193L257 192.5L0.999999 192.5L0.999999 193L0.999999 193.5L257 193.5L257 193ZM1 177L1 177.5L257 177.5L257 177L257 176.5L1 176.5L1 177Z" fill="#EAEFF7"/>
<path d="M257 209L257 208.5L0.999999 208.5L0.999999 209L0.999999 209.5L257 209.5L257 209ZM1 193L1 193.5L257 193.5L257 193L257 192.5L1 192.5L1 193Z" fill="#EAEFF7"/>
<path d="M257 225L257 224.5L0.999999 224.5L0.999999 225L0.999999 225.5L257 225.5L257 225ZM1 209L1 209.5L257 209.5L257 209L257 208.5L1 208.5L1 209Z" fill="#EAEFF7"/>
<path d="M257 241L257 240.5L0.999999 240.5L0.999999 241L0.999999 241.5L257 241.5L257 241ZM1 225L1 225.5L257 225.5L257 225L257 224.5L1 224.5L1 225Z" fill="#EAEFF7"/>
<path d="M257 257L257 256.5L0.999999 256.5L0.999999 257L0.999999 257.5L257 257.5L257 257ZM1 241L1 241.5L257 241.5L257 241L257 240.5L1 240.5L1 241Z" fill="#EAEFF7"/>
<rect x="0.5" y="0.5" width="257" height="257" stroke="#E6EAF2"/>
<path d="M1 9L1 1L9 1" stroke="#BFC3C9" stroke-width="2"/>
<path d="M9 257L1 257L1 249" stroke="#BFC3C9" stroke-width="2"/>
<path d="M257 9L257 1L249 1" stroke="#BFC3C9" stroke-width="2"/>
<path d="M249 257L257 257L257 249" stroke="#BFC3C9" stroke-width="2"/>
</svg>
